<svg width="48" height="48" viewBox="0 0 48 48" fill="none" xmlns="http://www.w3.org/2000/svg">
<path d="M35.8177 36.8043C35.3172 37.8411 34.2674 38.5 33.1161 38.5H16.8085C14.5892 38.5 13.1382 36.1739 14.1141 34.1807L25.3765 11.1807C25.8802 10.1521 26.9256 9.5 28.0709 9.5L44.2195 9.5C46.4315 9.5 47.8829 11.8122 46.9212 13.8042L35.8177 36.8043Z" fill="#444CE7"/>
<path opacity="0.5" d="M6.87039 26.7399C7.92153 29.0424 11.176 29.0886 12.2921 26.8169L18.6758 13.8228C19.6552 11.8294 18.2042 9.5 15.9832 9.5L3.66739 9.5C1.4834 9.5 0.0313419 11.7591 0.938336 13.7459L6.87039 26.7399Z" fill="#444CE7"/>
</svg>
